{"accessors":[{"name":"body01.006_Rocket_Ship_Circle.008-Mesh_positions","componentType":5126,"count":80,"min":[1.4527510404586792,-0.19705399870872498,-0.6077700257301331],"max":[2.014317035675049,1.0184880495071411,0.6077719926834106],"type":"VEC3","bufferView":0,"byteOffset":0},{"name":"body01.006_Rocket_Ship_Circle.008-Mesh_normals","componentType":5126,"count":80,"min":[0,-0.9239000082015991,-0.9239000082015991],"max":[1,0.9239000082015991,0.9239000082015991],"type":"VEC3","bufferView":0,"byteOffset":6768},{"name":"body01.006_Rocket_Ship_Circle.008-Mesh_0_indices","componentType":5123,"count":144,"min":[0],"max":[79],"type":"SCALAR","bufferView":1,"byteOffset":0},{"name":"body01.005_Rocket_Ship_Circle.006-Mesh_positions","componentType":5126,"count":80,"min":[-0.6077709794044495,-0.19705399870872498,-2.014317035675049],"max":[0.6077709794044495,1.0184869766235352,-1.4527510404586792],"type":"VEC3","bufferView":0,"byteOffset":960},{"name":"body01.005_Rocket_Ship_Circle.006-Mesh_normals","componentType":5126,"count":80,"min":[-0.9239000082015991,-0.9239000082015991,-1],"max":[0.9239000082015991,0.9239000082015991,0],"type":"VEC3","bufferView":0,"byteOffset":7728},{"name":"body01.005_Rocket_Ship_Circle.006-Mesh_0_indices","componentType":5123,"count":144,"min":[0],"max":[79],"type":"SCALAR","bufferView":1,"byteOffset":288},{"name":"body01.004_Rocket_Ship_Circle.003-Mesh_positions","componentType":5126,"count":80,"min":[-2.014317035675049,-0.19705499708652496,-0.6077700257301331],"max":[-1.4527510404586792,1.0184869766235352,0.6077719926834106],"type":"VEC3","bufferView":0,"byteOffset":1920},{"name":"body01.004_Rocket_Ship_Circle.003-Mesh_normals","componentType":5126,"count":80,"min":[-1,-0.9239000082015991,-0.9239000082015991],"max":[0,0.9239000082015991,0.9239000082015991],"type":"VEC3","bufferView":0,"byteOffset":8688},{"name":"body01.004_Rocket_Ship_Circle.003-Mesh_0_indices","componentType":5123,"count":144,"min":[0],"max":[79],"type":"SCALAR","bufferView":1,"byteOffset":576},{"name":"body01.003_Rocket_Ship_Circle.002-Mesh_positions","componentType":5126,"count":80,"min":[-0.6077700257301331,-0.19705599546432495,1.4527499675750732],"max":[0.6077709794044495,1.0184849500656128,2.0143160820007324],"type":"VEC3","bufferView":0,"byteOffset":2880},{"name":"body01.003_Rocket_Ship_Circle.002-Mesh_normals","componentType":5126,"count":80,"min":[-0.9239000082015991,-0.9239000082015991,0],"max":[0.9239000082015991,0.9239000082015991,1],"type":"VEC3","bufferView":0,"byteOffset":9648},{"name":"body01.003_Rocket_Ship_Circle.002-Mesh_0_indices","componentType":5123,"count":144,"min":[0],"max":[79],"type":"SCALAR","bufferView":1,"byteOffset":864},{"name":"body01.002_Rocket_Ship_Circle.001-Mesh_positions","componentType":5126,"count":112,"min":[-1.9581539630889893,-2.5335090160369873,-1.9581539630889893],"max":[1.9581539630889893,1.9964029788970947,1.9581539630889893],"type":"VEC3","bufferView":0,"byteOffset":3840},{"name":"body01.002_Rocket_Ship_Circle.001-Mesh_normals","componentType":5126,"count":112,"min":[-0.9232000112533569,-1,-0.9232000112533569],"max":[0.9232000112533569,1,0.9232000112533569],"type":"VEC3","bufferView":0,"byteOffset":10608},{"name":"body01.002_Rocket_Ship_Circle.001-Mesh_0_indices","componentType":5123,"count":186,"min":[0],"max":[111],"type":"SCALAR","bufferView":1,"byteOffset":1152},{"name":"body01.001_Rocket_Ship_Circle.000-Mesh_positions","componentType":5126,"count":96,"min":[-2.062674045562744,-1.7677860260009766,-2.062674045562744],"max":[2.062674045562744,-1.5534629821777344,2.062674045562744],"type":"VEC3","bufferView":0,"byteOffset":5184},{"name":"body01.001_Rocket_Ship_Circle.000-Mesh_normals","componentType":5126,"count":96,"min":[-0.9239000082015991,-1,-0.9239000082015991],"max":[0.9239000082015991,1,0.9239000082015991],"type":"VEC3","bufferView":0,"byteOffset":11952},{"name":"body01.001_Rocket_Ship_Circle.000-Mesh_0_indices","componentType":5123,"count":192,"min":[0],"max":[95],"type":"SCALAR","bufferView":1,"byteOffset":1524},{"name":"body01_Rocket_Ship_Circle.024-Mesh_positions","componentType":5126,"count":36,"min":[-1.9293899536132812,-0.002824000082910061,-1.9261289834976196],"max":[1.9293899536132812,0.8242560029029846,1.9261300563812256],"type":"VEC3","bufferView":0,"byteOffset":6336},{"name":"body01_Rocket_Ship_Circle.024-Mesh_normals","componentType":5126,"count":36,"min":[-1,0,-1],"max":[1,0,1],"type":"VEC3","bufferView":0,"byteOffset":13104},{"name":"body01_Rocket_Ship_Circle.024-Mesh_0_indices","componentType":5123,"count":96,"min":[0],"max":[35],"type":"SCALAR","bufferView":1,"byteOffset":1908}],"asset":{"group":"bodyArr","generator":"obj2gltf","version":"2.0"},"buffers":[{"name":"body01c","byteLength":15636,"uri":"data:application/octet-stream;base64,"}],"bufferViews":[{"name":"bufferView_0","buffer":0,"byteLength":13536,"byteOffset":0,"byteStride":12,"target":34962},{"name":"bufferView_1","buffer":0,"byteLength":2100,"byteOffset":13536,"target":34963}],"materials":[{"name":"455A64.003","pbrMetallicRoughness":{"baseColorFactor":[0.270588,0.352941,0.392157,1],"metallicFactor":0,"roughnessFactor":0.905882353},"emissiveFactor":[0,0,0],"alphaMode":"OPAQUE","doubleSided":false},{"name":"FFFFFF.003","pbrMetallicRoughness":{"baseColorFactor":[1,0.944851,0.654598,1],"metallicFactor":0,"roughnessFactor":0.905882353},"emissiveFactor":[0,0,0],"alphaMode":"OPAQUE","doubleSided":false},{"name":"80DEEA.003","pbrMetallicRoughness":{"baseColorFactor":[0.501961,0.870588,0.917647,1],"metallicFactor":0,"roughnessFactor":0.905882353},"emissiveFactor":[0,0,0],"alphaMode":"OPAQUE","doubleSided":false}],"meshes":[{"name":"body01.006_Rocket_Ship_Circle.008-Mesh","primitives":[{"attributes":{"POSITION":0,"NORMAL":1},"indices":2,"material":0,"mode":4}]},{"name":"body01.005_Rocket_Ship_Circle.006-Mesh","primitives":[{"attributes":{"POSITION":3,"NORMAL":4},"indices":5,"material":0,"mode":4}]},{"name":"body01.004_Rocket_Ship_Circle.003-Mesh","primitives":[{"attributes":{"POSITION":6,"NORMAL":7},"indices":8,"material":0,"mode":4}]},{"name":"body01.003_Rocket_Ship_Circle.002-Mesh","primitives":[{"attributes":{"POSITION":9,"NORMAL":10},"indices":11,"material":0,"mode":4}]},{"name":"body01.002_Rocket_Ship_Circle.001-Mesh","primitives":[{"attributes":{"POSITION":12,"NORMAL":13},"indices":14,"material":1,"mode":4}]},{"name":"body01.001_Rocket_Ship_Circle.000-Mesh","primitives":[{"attributes":{"POSITION":15,"NORMAL":16},"indices":17,"material":0,"mode":4}]},{"name":"body01_Rocket_Ship_Circle.024-Mesh","primitives":[{"attributes":{"POSITION":18,"NORMAL":19},"indices":20,"material":2,"mode":4}]}],"nodes":[{"name":"body01.006_Rocket_Ship_Circle.008","mesh":0},{"name":"body01.005_Rocket_Ship_Circle.006","mesh":1},{"name":"body01.004_Rocket_Ship_Circle.003","mesh":2},{"name":"body01.003_Rocket_Ship_Circle.002","mesh":3},{"name":"body01.002_Rocket_Ship_Circle.001","mesh":4},{"name":"body01.001_Rocket_Ship_Circle.000","mesh":5},{"name":"body01_Rocket_Ship_Circle.024","mesh":6}],"scene":0,"scenes":[{"nodes":[0,1,2,3,4,5,6]}]}
