{"accessors":[{"name":"Cone01.002-Mesh_positions","componentType":5126,"count":128,"min":[-1.6470990180969238,0.1834689974784851,-1.6698379516601562],"max":[1.6830940246582031,3.209528923034668,1.660356044769287],"type":"VEC3","bufferView":0,"byteOffset":0},{"name":"Cone01.002-Mesh_normals","componentType":5126,"count":128,"min":[-0.8634999990463257,0.3555000126361847,-0.8634999990463257],"max":[0.8634999990463257,0.5026000142097473,0.8634999990463257],"type":"VEC3","bufferView":0,"byteOffset":5280},{"name":"Cone01.002-Mesh_0_indices","componentType":5123,"count":192,"min":[0],"max":[127],"type":"SCALAR","bufferView":1,"byteOffset":0},{"name":"Cone01.001-Mesh_positions","componentType":5126,"count":96,"min":[-1.7426739931106567,0.10980500280857086,-1.7654130458831787],"max":[1.778668999671936,0.29274800419807434,1.75593101978302],"type":"VEC3","bufferView":0,"byteOffset":1536},{"name":"Cone01.001-Mesh_normals","componentType":5126,"count":96,"min":[-0.9239000082015991,-1,-0.9239000082015991],"max":[0.9239000082015991,1,0.9239000082015991],"type":"VEC3","bufferView":0,"byteOffset":6816},{"name":"Cone01.001-Mesh_0_indices","componentType":5123,"count":192,"min":[0],"max":[95],"type":"SCALAR","bufferView":1,"byteOffset":384},{"name":"Cone01-Mesh_positions","componentType":5126,"count":216,"min":[-0.16447700560092926,3.209528923034668,-0.18721599876880646],"max":[0.20047199726104736,3.5605878829956055,0.17773400247097015],"type":"VEC3","bufferView":0,"byteOffset":2688},{"name":"Cone01-Mesh_normals","componentType":5126,"count":216,"min":[-0.9086999893188477,-0.8102999925613403,-0.9086999893188477],"max":[0.9086999893188477,0.9775999784469604,0.9086999893188477],"type":"VEC3","bufferView":0,"byteOffset":7968},{"name":"Cone01-Mesh_0_indices","componentType":5123,"count":312,"min":[0],"max":[215],"type":"SCALAR","bufferView":1,"byteOffset":768}],"asset":{"group":"coneArr","generator":"obj2gltf","version":"2.0"},"buffers":[{"name":"cone01c","byteLength":11952,"uri":"data:application/octet-stream;base64,"}],"bufferViews":[{"name":"bufferView_0","buffer":0,"byteLength":10560,"byteOffset":0,"byteStride":12,"target":34962},{"name":"bufferView_1","buffer":0,"byteLength":1392,"byteOffset":10560,"target":34963}],"materials":[{"name":"F44336.003","pbrMetallicRoughness":{"baseColorFactor":[0.049848,0.956863,0.318762,1],"metallicFactor":0,"roughnessFactor":0.905882353},"emissiveFactor":[0,0,0],"alphaMode":"OPAQUE","doubleSided":false},{"name":"455A64.003","pbrMetallicRoughness":{"baseColorFactor":[0.270588,0.352941,0.392157,1],"metallicFactor":0,"roughnessFactor":0.905882353},"emissiveFactor":[0,0,0],"alphaMode":"OPAQUE","doubleSided":false},{"name":"78909C.003","pbrMetallicRoughness":{"baseColorFactor":[0.470588,0.564706,0.611765,1],"metallicFactor":0,"roughnessFactor":0.905882353},"emissiveFactor":[0,0,0],"alphaMode":"OPAQUE","doubleSided":false}],"meshes":[{"name":"Cone01.002-Mesh","primitives":[{"attributes":{"POSITION":0,"NORMAL":1},"indices":2,"material":0,"mode":4}]},{"name":"Cone01.001-Mesh","primitives":[{"attributes":{"POSITION":3,"NORMAL":4},"indices":5,"material":1,"mode":4}]},{"name":"Cone01-Mesh","primitives":[{"attributes":{"POSITION":6,"NORMAL":7},"indices":8,"material":2,"mode":4}]}],"nodes":[{"name":"Cone01.002","mesh":0},{"name":"Cone01.001","mesh":1},{"name":"Cone01","mesh":2}],"scene":0,"scenes":[{"nodes":[0,1,2]}]}
