{"accessors":[{"name":"Rocket_Ship_Circle.013_Rocket_Ship_Circle.018-Mesh_positions","componentType":5126,"count":440,"min":[-1.7606749534606934,-0.04319100081920624,-1.760673999786377],"max":[1.7606680393218994,3.4075920581817627,1.7606699466705322],"type":"VEC3","bufferView":0,"byteOffset":0},{"name":"Rocket_Ship_Circle.013_Rocket_Ship_Circle.018-Mesh_normals","componentType":5126,"count":440,"min":[-0.9239000082015991,-1,-0.9239000082015991],"max":[0.9239000082015991,1,0.9239000082015991],"type":"VEC3","bufferView":0,"byteOffset":5280},{"name":"Rocket_Ship_Circle.013_Rocket_Ship_Circle.018-Mesh_0_indices","componentType":5123,"count":192,"min":[0],"max":[95],"type":"SCALAR","bufferView":1,"byteOffset":0},{"name":"Rocket_Ship_Circle.013_Rocket_Ship_Circle.018-Mesh_1_indices","componentType":5123,"count":312,"min":[96],"max":[311],"type":"SCALAR","bufferView":1,"byteOffset":384},{"name":"Rocket_Ship_Circle.013_Rocket_Ship_Circle.018-Mesh_2_indices","componentType":5123,"count":192,"min":[312],"max":[439],"type":"SCALAR","bufferView":1,"byteOffset":1008}],"asset":{"generator":"obj2gltf","version":"2.0"},"buffers":[{"name":"cone01a","byteLength":11952,"uri":"data:application/octet-stream;base64,"}],"bufferViews":[{"name":"bufferView_0","buffer":0,"byteLength":10560,"byteOffset":0,"byteStride":12,"target":34962},{"name":"bufferView_1","buffer":0,"byteLength":1392,"byteOffset":10560,"target":34963}],"materials":[{"name":"455A64.003","pbrMetallicRoughness":{"baseColorFactor":[0.270588,0.352941,0.392157,1],"metallicFactor":0,"roughnessFactor":0.905882353},"emissiveFactor":[0,0,0],"alphaMode":"OPAQUE","doubleSided":false},{"name":"78909C.003","pbrMetallicRoughness":{"baseColorFactor":[0.470588,0.564706,0.611765,1],"metallicFactor":0,"roughnessFactor":0.905882353},"emissiveFactor":[0,0,0],"alphaMode":"OPAQUE","doubleSided":false},{"name":"F44336.003","pbrMetallicRoughness":{"baseColorFactor":[0.049848,0.956863,0.318762,1],"metallicFactor":0,"roughnessFactor":0.905882353},"emissiveFactor":[0,0,0],"alphaMode":"OPAQUE","doubleSided":false}],"meshes":[{"name":"Rocket_Ship_Circle.013_Rocket_Ship_Circle.018-Mesh","primitives":[{"attributes":{"POSITION":0,"NORMAL":1},"indices":2,"material":0,"mode":4},{"attributes":{"POSITION":0,"NORMAL":1},"indices":3,"material":1,"mode":4},{"attributes":{"POSITION":0,"NORMAL":1},"indices":4,"material":2,"mode":4}]}],"nodes":[{"name":"Rocket_Ship_Circle.013_Rocket_Ship_Circle.018","mesh":0}],"scene":0,"scenes":[{"nodes":[0]}]}
