{
    "accessors": [
        {
            "bufferView": 4,
            "byteOffset": 0,
            "componentType": 5123,
            "count": 624,
            "max": [
                1364
            ],
            "min": [
                3
            ],
            "name": "accessor_buffer_Rocket_Ship_Circle.003_2",
            "type": "SCALAR"
        },
        {
            "bufferView": 1,
            "byteOffset": 0,
            "componentType": 5126,
            "count": 1373,
            "max": [
                1.0,
                1.0,
                1.0
            ],
            "min": [
                -1.0,
                -1.0,
                -1.0
            ],
            "name": "accessor_buffer_Rocket_Ship_Circle.003_NORMAL_0",
            "type": "VEC3"
        },
        {
            "bufferView": 3,
            "byteOffset": 0,
            "componentType": 5123,
            "count": 96,
            "max": [
                1370
            ],
            "min": [
                104
            ],
            "name": "accessor_buffer_Rocket_Ship_Circle.003_1",
            "type": "SCALAR"
        },
        {
            "bufferView": 5,
            "byteOffset": 0,
            "componentType": 5123,
            "count": 1056,
            "max": [
                1372
            ],
            "min": [
                1
            ],
            "name": "accessor_buffer_Rocket_Ship_Circle.003_3",
            "type": "SCALAR"
        },
        {
            "bufferView": 2,
            "byteOffset": 0,
            "componentType": 5123,
            "count": 480,
            "max": [
                1361
            ],
            "min": [
                5
            ],
            "name": "accessor_buffer_Rocket_Ship_Circle.003_0",
            "type": "SCALAR"
        },
        {
            "bufferView": 6,
            "byteOffset": 0,
            "componentType": 5123,
            "count": 240,
            "max": [
                1352
            ],
            "min": [
                0
            ],
            "name": "accessor_buffer_Rocket_Ship_Circle.003_4",
            "type": "SCALAR"
        },
        {
            "bufferView": 0,
            "byteOffset": 0,
            "componentType": 5126,
            "count": 1373,
            "max": [
                3.2945470809936523,
                3.2945470809936523,
                9.915228843688965
            ],
            "min": [
                -3.2945470809936523,
                -3.2945470809936523,
                0.0
            ],
            "name": "accessor_buffer_Rocket_Ship_Circle.003_POSITION_0",
            "type": "VEC3"
        }
    ],
    "asset": {
        "copyright": "",
        "generator": "blendergltf v1.2.0",
        "version": "2.0"
    },
    "bufferViews": [
        {
            "buffer": 0,
            "byteLength": 16476,
            "byteOffset": 0,
            "byteStride": 12,
            "name": "bufferView_buffer_Rocket_Ship_Circle.003_POSITION_0",
            "target": 34962
        },
        {
            "buffer": 0,
            "byteLength": 16476,
            "byteOffset": 16476,
            "byteStride": 12,
            "name": "bufferView_buffer_Rocket_Ship_Circle.003_NORMAL_0",
            "target": 34962
        },
        {
            "buffer": 0,
            "byteLength": 964,
            "byteOffset": 32952,
            "name": "bufferView_buffer_Rocket_Ship_Circle.003_0",
            "target": 34963
        },
        {
            "buffer": 0,
            "byteLength": 196,
            "byteOffset": 33916,
            "name": "bufferView_buffer_Rocket_Ship_Circle.003_1",
            "target": 34963
        },
        {
            "buffer": 0,
            "byteLength": 1252,
            "byteOffset": 34112,
            "name": "bufferView_buffer_Rocket_Ship_Circle.003_2",
            "target": 34963
        },
        {
            "buffer": 0,
            "byteLength": 2116,
            "byteOffset": 35364,
            "name": "bufferView_buffer_Rocket_Ship_Circle.003_3",
            "target": 34963
        },
        {
            "buffer": 0,
            "byteLength": 484,
            "byteOffset": 37480,
            "name": "bufferView_buffer_Rocket_Ship_Circle.003_4",
            "target": 34963
        }
    ],
    "buffers": [
        {
            "byteLength": 37964,
            "name": "buffer_rocket01",
            "uri": "buffer_rocket01.bin"
        }
    ],
    "cameras": [
        {
            "name": "Camera",
            "perspective": {
                "aspectRatio": 1.703595982340029,
                "yfov": 0.5033799409866333,
                "zfar": 100.0,
                "znear": 0.10000000149011612
            },
            "type": "perspective"
        }
    ],
    "materials": [
        {
            "alphaMode": "BLEND",
            "doubleSided": false,
            "emissiveFactor": [
                0.0,
                0.0,
                0.0
            ],
            "name": "455A64",
            "pbrMetallicRoughness": {
                "baseColorFactor": [
                    0.2705880105495453,
                    0.35294100642204285,
                    0.3921569883823395,
                    0.0
                ],
                "metallicFactor": 0.0,
                "roughnessFactor": 1.0
            }
        },
        {
            "alphaMode": "BLEND",
            "doubleSided": false,
            "emissiveFactor": [
                0.0,
                0.0,
                0.0
            ],
            "name": "78909C",
            "pbrMetallicRoughness": {
                "baseColorFactor": [
                    0.47058799862861633,
                    0.564706027507782,
                    0.6117650270462036,
                    0.0
                ],
                "metallicFactor": 0.0,
                "roughnessFactor": 1.0
            }
        },
        {
            "alphaMode": "BLEND",
            "doubleSided": false,
            "emissiveFactor": [
                0.0,
                0.0,
                0.0
            ],
            "name": "80DEEA",
            "pbrMetallicRoughness": {
                "baseColorFactor": [
                    0.5019609928131104,
                    0.8705880045890808,
                    0.9176470041275024,
                    0.0
                ],
                "metallicFactor": 0.0,
                "roughnessFactor": 1.0
            }
        },
        {
            "alphaMode": "BLEND",
            "doubleSided": false,
            "emissiveFactor": [
                0.0,
                0.0,
                0.0
            ],
            "name": "F44336",
            "pbrMetallicRoughness": {
                "baseColorFactor": [
                    0.9568629860877991,
                    0.2627449929714203,
                    0.21176500618457794,
                    0.0
                ],
                "metallicFactor": 0.0,
                "roughnessFactor": 1.0
            }
        },
        {
            "alphaMode": "BLEND",
            "doubleSided": false,
            "emissiveFactor": [
                0.0,
                0.0,
                0.0
            ],
            "name": "FFFFFF",
            "pbrMetallicRoughness": {
                "baseColorFactor": [
                    1.0,
                    1.0,
                    1.0,
                    0.0
                ],
                "metallicFactor": 0.0,
                "roughnessFactor": 1.0
            }
        }
    ],
    "meshes": [
        {
            "name": "Rocket_Ship_Circle.003",
            "primitives": [
                {
                    "attributes": {
                        "NORMAL": 1,
                        "POSITION": 6
                    },
                    "indices": 4,
                    "material": 1,
                    "mode": 4
                },
                {
                    "attributes": {
                        "NORMAL": 1,
                        "POSITION": 6
                    },
                    "indices": 2,
                    "material": 2,
                    "mode": 4
                },
                {
                    "attributes": {
                        "NORMAL": 1,
                        "POSITION": 6
                    },
                    "indices": 0,
                    "material": 3,
                    "mode": 4
                },
                {
                    "attributes": {
                        "NORMAL": 1,
                        "POSITION": 6
                    },
                    "indices": 3,
                    "material": 0,
                    "mode": 4
                },
                {
                    "attributes": {
                        "NORMAL": 1,
                        "POSITION": 6
                    },
                    "indices": 5,
                    "material": 4,
                    "mode": 4
                }
            ]
        }
    ],
    "nodes": [
        {
            "camera": 0,
            "name": "Camera",
            "rotation": [
                -0.09062843769788742,
                -0.8937962651252747,
                -0.2099730223417282,
                0.38578000664711
            ],
            "scale": [
                1.0,
                1.0,
                1.0
            ],
            "translation": [
                -7.481131553649902,
                5.34366512298584,
                -6.5076398849487305
            ]
        },
        {
            "name": "Lamp",
            "rotation": [
                -0.34203386306762695,
                -0.5232755541801453,
                -0.2841663062572479,
                0.7269423007965088
            ],
            "scale": [
                1.0,
                1.0,
                0.9999999403953552
            ],
            "translation": [
                -4.076245307922363,
                5.903861999511719,
                1.0054539442062378
            ]
        },
        {
            "mesh": 0,
            "name": "Rocket_Ship_Circle.003",
            "rotation": [
                -0.7071068286895752,
                0.0,
                0.0,
                0.7071067094802856
            ],
            "scale": [
                1.0,
                1.0,
                1.0
            ],
            "translation": [
                0.0,
                0.0,
                0.0
            ]
        }
    ],
    "scene": 0,
    "scenes": [
        {
            "extras": {
                "active_camera": 0,
                "background_color": [
                    0.05087608844041824,
                    0.05087608844041824,
                    0.05087608844041824
                ],
                "frames_per_second": 24
            },
            "name": "Scene",
            "nodes": [
                2,
                1,
                0
            ]
        }
    ]
}
