{
  "asset": {
    "version": "2.0",
    "generator": "THREE.GLTFExporter"
  },
  "scenes": [
    {
      "nodes": [
        17
      ],
      "name": "AuxScene"
    }
  ],
  "scene": 0,
  "nodes": [
    {
      "name": "Cone01002",
      "mesh": 0
    },
    {
      "name": "Cone01001",
      "mesh": 1
    },
    {
      "name": "Cone01",
      "mesh": 2
    },
    {
      "matrix": [
        1,
        0,
        0,
        0,
        0,
        1,
        0,
        0,
        0,
        0,
        1,
        0,
        0,
        2,
        0,
        1
      ],
      "children": [
        0,
        1,
        2
      ]
    },
    {
      "name": "thrusterbase003_Rocket_Ship_Circle049",
      "mesh": 3
    },
    {
      "name": "thrusterbase002_Rocket_Ship_Circle048",
      "mesh": 4
    },
    {
      "name": "thrusterbase001_Rocket_Ship_Circle047",
      "mesh": 5
    },
    {
      "name": "thrusterbase_Rocket_Ship_Circle038",
      "mesh": 6
    },
    {
      "matrix": [
        1,
        0,
        0,
        0,
        0,
        1,
        0,
        0,
        0,
        0,
        1,
        0,
        0,
        -5,
        0,
        1
      ],
      "children": [
        4,
        5,
        6,
        7
      ]
    },
    {
      "name": "body01006_Rocket_Ship_Circle008",
      "mesh": 7
    },
    {
      "name": "body01005_Rocket_Ship_Circle006",
      "mesh": 8
    },
    {
      "name": "body01004_Rocket_Ship_Circle003",
      "mesh": 9
    },
    {
      "name": "body01003_Rocket_Ship_Circle002",
      "mesh": 10
    },
    {
      "name": "body01001_Rocket_Ship_Circle000",
      "mesh": 11
    },
    {
      "name": "body01002_Rocket_Ship_Circle001",
      "mesh": 12
    },
    {
      "name": "body01_Rocket_Ship_Circle024",
      "mesh": 13
    },
    {
      "children": [
        9,
        10,
        11,
        12,
        13,
        14,
        15
      ]
    },
    {
      "name": "myrocket",
      "children": [
        3,
        8,
        16
      ]
    }
  ],
  "bufferViews": [
    {
      "buffer": 0,
      "byteOffset": 0,
      "byteLength": 1536,
      "target": 34962,
      "byteStride": 12
    },
    {
      "buffer": 0,
      "byteOffset": 1536,
      "byteLength": 1536,
      "target": 34962,
      "byteStride": 12
    },
    {
      "buffer": 0,
      "byteOffset": 3072,
      "byteLength": 384,
      "target": 34963
    },
    {
      "buffer": 0,
      "byteOffset": 3456,
      "byteLength": 1152,
      "target": 34962,
      "byteStride": 12
    },
    {
      "buffer": 0,
      "byteOffset": 4608,
      "byteLength": 1152,
      "target": 34962,
      "byteStride": 12
    },
    {
      "buffer": 0,
      "byteOffset": 5760,
      "byteLength": 384,
      "target": 34963
    },
    {
      "buffer": 0,
      "byteOffset": 6144,
      "byteLength": 2592,
      "target": 34962,
      "byteStride": 12
    },
    {
      "buffer": 0,
      "byteOffset": 8736,
      "byteLength": 2592,
      "target": 34962,
      "byteStride": 12
    },
    {
      "buffer": 0,
      "byteOffset": 11328,
      "byteLength": 624,
      "target": 34963
    },
    {
      "buffer": 0,
      "byteOffset": 11952,
      "byteLength": 1068,
      "target": 34962,
      "byteStride": 12
    },
    {
      "buffer": 0,
      "byteOffset": 13020,
      "byteLength": 1068,
      "target": 34962,
      "byteStride": 12
    },
    {
      "buffer": 0,
      "byteOffset": 14088,
      "byteLength": 336,
      "target": 34963
    },
    {
      "buffer": 0,
      "byteOffset": 14424,
      "byteLength": 1824,
      "target": 34962,
      "byteStride": 12
    },
    {
      "buffer": 0,
      "byteOffset": 16248,
      "byteLength": 1824,
      "target": 34962,
      "byteStride": 12
    },
    {
      "buffer": 0,
      "byteOffset": 18072,
      "byteLength": 612,
      "target": 34963
    },
    {
      "buffer": 0,
      "byteOffset": 18684,
      "byteLength": 2400,
      "target": 34962,
      "byteStride": 12
    },
    {
      "buffer": 0,
      "byteOffset": 21084,
      "byteLength": 2400,
      "target": 34962,
      "byteStride": 12
    },
    {
      "buffer": 0,
      "byteOffset": 23484,
      "byteLength": 864,
      "target": 34963
    },
    {
      "buffer": 0,
      "byteOffset": 24348,
      "byteLength": 960,
      "target": 34962,
      "byteStride": 12
    },
    {
      "buffer": 0,
      "byteOffset": 25308,
      "byteLength": 960,
      "target": 34962,
      "byteStride": 12
    },
    {
      "buffer": 0,
      "byteOffset": 26268,
      "byteLength": 288,
      "target": 34963
    },
    {
      "buffer": 0,
      "byteOffset": 26556,
      "byteLength": 960,
      "target": 34962,
      "byteStride": 12
    },
    {
      "buffer": 0,
      "byteOffset": 27516,
      "byteLength": 960,
      "target": 34962,
      "byteStride": 12
    },
    {
      "buffer": 0,
      "byteOffset": 28476,
      "byteLength": 288,
      "target": 34963
    },
    {
      "buffer": 0,
      "byteOffset": 28764,
      "byteLength": 960,
      "target": 34962,
      "byteStride": 12
    },
    {
      "buffer": 0,
      "byteOffset": 29724,
      "byteLength": 960,
      "target": 34962,
      "byteStride": 12
    },
    {
      "buffer": 0,
      "byteOffset": 30684,
      "byteLength": 288,
      "target": 34963
    },
    {
      "buffer": 0,
      "byteOffset": 30972,
      "byteLength": 960,
      "target": 34962,
      "byteStride": 12
    },
    {
      "buffer": 0,
      "byteOffset": 31932,
      "byteLength": 960,
      "target": 34962,
      "byteStride": 12
    },
    {
      "buffer": 0,
      "byteOffset": 32892,
      "byteLength": 288,
      "target": 34963
    },
    {
      "buffer": 0,
      "byteOffset": 33180,
      "byteLength": 960,
      "target": 34962,
      "byteStride": 12
    },
    {
      "buffer": 0,
      "byteOffset": 34140,
      "byteLength": 960,
      "target": 34962,
      "byteStride": 12
    },
    {
      "buffer": 0,
      "byteOffset": 35100,
      "byteLength": 288,
      "target": 34963
    },
    {
      "buffer": 0,
      "byteOffset": 35388,
      "byteLength": 1152,
      "target": 34962,
      "byteStride": 12
    },
    {
      "buffer": 0,
      "byteOffset": 36540,
      "byteLength": 1152,
      "target": 34962,
      "byteStride": 12
    },
    {
      "buffer": 0,
      "byteOffset": 37692,
      "byteLength": 384,
      "target": 34963
    },
    {
      "buffer": 0,
      "byteOffset": 38076,
      "byteLength": 1344,
      "target": 34962,
      "byteStride": 12
    },
    {
      "buffer": 0,
      "byteOffset": 39420,
      "byteLength": 1344,
      "target": 34962,
      "byteStride": 12
    },
    {
      "buffer": 0,
      "byteOffset": 40764,
      "byteLength": 372,
      "target": 34963
    },
    {
      "buffer": 0,
      "byteOffset": 41136,
      "byteLength": 432,
      "target": 34962,
      "byteStride": 12
    },
    {
      "buffer": 0,
      "byteOffset": 41568,
      "byteLength": 432,
      "target": 34962,
      "byteStride": 12
    },
    {
      "buffer": 0,
      "byteOffset": 42000,
      "byteLength": 192,
      "target": 34963
    }
  ],
  "buffers": [
    {
      "byteLength": 42192,
      "uri": "data:application/octet-stream;base64,"
    }
  ],
  "accessors": [
    {
      "bufferView": 0,
      "componentType": 5126,
      "count": 128,
      "max": [
        1.6830940246582031,
        3.209528923034668,
        1.660356044769287
      ],
      "min": [
        -1.6470990180969238,
        0.1834689974784851,
        -1.6698379516601562
      ],
      "type": "VEC3"
    },
    {
      "bufferView": 1,
      "componentType": 5126,
      "count": 128,
      "max": [
        0.8634999990463257,
        0.5026000142097473,
        0.8634999990463257
      ],
      "min": [
        -0.8634999990463257,
        0.3555000126361847,
        -0.8634999990463257
      ],
      "type": "VEC3"
    },
    {
      "bufferView": 2,
      "componentType": 5123,
      "count": 192,
      "max": [
        127
      ],
      "min": [
        0
      ],
      "type": "SCALAR"
    },
    {
      "bufferView": 3,
      "componentType": 5126,
      "count": 96,
      "max": [
        1.778668999671936,
        0.29274800419807434,
        1.75593101978302
      ],
      "min": [
        -1.7426739931106567,
        0.10980500280857086,
        -1.7654130458831787
      ],
      "type": "VEC3"
    },
    {
      "bufferView": 4,
      "componentType": 5126,
      "count": 96,
      "max": [
        0.9239000082015991,
        1,
        0.9239000082015991
      ],
      "min": [
        -0.9239000082015991,
        -1,
        -0.9239000082015991
      ],
      "type": "VEC3"
    },
    {
      "bufferView": 5,
      "componentType": 5123,
      "count": 192,
      "max": [
        95
      ],
      "min": [
        0
      ],
      "type": "SCALAR"
    },
    {
      "bufferView": 6,
      "componentType": 5126,
      "count": 216,
      "max": [
        0.20047199726104736,
        3.5605878829956055,
        0.17773400247097015
      ],
      "min": [
        -0.16447700560092926,
        3.209528923034668,
        -0.18721599876880646
      ],
      "type": "VEC3"
    },
    {
      "bufferView": 7,
      "componentType": 5126,
      "count": 216,
      "max": [
        0.9086999893188477,
        0.9775999784469604,
        0.9086999893188477
      ],
      "min": [
        -0.9086999893188477,
        -0.8102999925613403,
        -0.9086999893188477
      ],
      "type": "VEC3"
    },
    {
      "bufferView": 8,
      "componentType": 5123,
      "count": 312,
      "max": [
        215
      ],
      "min": [
        0
      ],
      "type": "SCALAR"
    },
    {
      "bufferView": 9,
      "componentType": 5126,
      "count": 89,
      "max": [
        0.8525949716567993,
        1.1023449897766113,
        0.8525949716567993
      ],
      "min": [
        -0.8525949716567993,
        0.395236998796463,
        -0.8525949716567993
      ],
      "type": "VEC3"
    },
    {
      "bufferView": 10,
      "componentType": 5126,
      "count": 89,
      "max": [
        0.9239000082015991,
        0,
        0.9239000082015991
      ],
      "min": [
        -0.9239000082015991,
        -1,
        -0.9239000082015991
      ],
      "type": "VEC3"
    },
    {
      "bufferView": 11,
      "componentType": 5123,
      "count": 168,
      "max": [
        88
      ],
      "min": [
        0
      ],
      "type": "SCALAR"
    },
    {
      "bufferView": 12,
      "componentType": 5126,
      "count": 152,
      "max": [
        2.062674045562744,
        3.383481979370117,
        2.062674045562744
      ],
      "min": [
        -2.062674045562744,
        1.102344036102295,
        -2.062674045562744
      ],
      "type": "VEC3"
    },
    {
      "bufferView": 13,
      "componentType": 5126,
      "count": 152,
      "max": [
        0.9239000082015991,
        1,
        0.9239000082015991
      ],
      "min": [
        -0.9239000082015991,
        -1,
        -0.9239000082015991
      ],
      "type": "VEC3"
    },
    {
      "bufferView": 14,
      "componentType": 5123,
      "count": 306,
      "max": [
        151
      ],
      "min": [
        0
      ],
      "type": "SCALAR"
    },
    {
      "bufferView": 15,
      "componentType": 5126,
      "count": 200,
      "max": [
        3.2945470809936523,
        3.2481849193573,
        3.2945470809936523
      ],
      "min": [
        -3.2945470809936523,
        0.25349700450897217,
        -3.2945470809936523
      ],
      "type": "VEC3"
    },
    {
      "bufferView": 16,
      "componentType": 5126,
      "count": 200,
      "max": [
        1,
        0.7847999930381775,
        1
      ],
      "min": [
        -1,
        -0.9914000034332275,
        -1
      ],
      "type": "VEC3"
    },
    {
      "bufferView": 17,
      "componentType": 5123,
      "count": 432,
      "max": [
        199
      ],
      "min": [
        0
      ],
      "type": "SCALAR"
    },
    {
      "bufferView": 18,
      "componentType": 5126,
      "count": 80,
      "max": [
        1.9581539630889893,
        3.2956929206848145,
        1.9581539630889893
      ],
      "min": [
        -1.9581539630889893,
        1.4082280397415161,
        -1.9581539630889893
      ],
      "type": "VEC3"
    },
    {
      "bufferView": 19,
      "componentType": 5126,
      "count": 80,
      "max": [
        0.9190999865531921,
        -0.10109999775886536,
        0.9190999865531921
      ],
      "min": [
        -0.9190999865531921,
        -1,
        -0.9190999865531921
      ],
      "type": "VEC3"
    },
    {
      "bufferView": 20,
      "componentType": 5123,
      "count": 144,
      "max": [
        79
      ],
      "min": [
        0
      ],
      "type": "SCALAR"
    },
    {
      "bufferView": 21,
      "componentType": 5126,
      "count": 80,
      "max": [
        2.014317035675049,
        1.0184880495071411,
        0.6077719926834106
      ],
      "min": [
        1.4527510404586792,
        -0.19705399870872498,
        -0.6077700257301331
      ],
      "type": "VEC3"
    },
    {
      "bufferView": 22,
      "componentType": 5126,
      "count": 80,
      "max": [
        1,
        0.9239000082015991,
        0.9239000082015991
      ],
      "min": [
        0,
        -0.9239000082015991,
        -0.9239000082015991
      ],
      "type": "VEC3"
    },
    {
      "bufferView": 23,
      "componentType": 5123,
      "count": 144,
      "max": [
        79
      ],
      "min": [
        0
      ],
      "type": "SCALAR"
    },
    {
      "bufferView": 24,
      "componentType": 5126,
      "count": 80,
      "max": [
        0.6077709794044495,
        1.0184869766235352,
        -1.4527510404586792
      ],
      "min": [
        -0.6077709794044495,
        -0.19705399870872498,
        -2.014317035675049
      ],
      "type": "VEC3"
    },
    {
      "bufferView": 25,
      "componentType": 5126,
      "count": 80,
      "max": [
        0.9239000082015991,
        0.9239000082015991,
        0
      ],
      "min": [
        -0.9239000082015991,
        -0.9239000082015991,
        -1
      ],
      "type": "VEC3"
    },
    {
      "bufferView": 26,
      "componentType": 5123,
      "count": 144,
      "max": [
        79
      ],
      "min": [
        0
      ],
      "type": "SCALAR"
    },
    {
      "bufferView": 27,
      "componentType": 5126,
      "count": 80,
      "max": [
        -1.4527510404586792,
        1.0184869766235352,
        0.6077719926834106
      ],
      "min": [
        -2.014317035675049,
        -0.19705499708652496,
        -0.6077700257301331
      ],
      "type": "VEC3"
    },
    {
      "bufferView": 28,
      "componentType": 5126,
      "count": 80,
      "max": [
        0,
        0.9239000082015991,
        0.9239000082015991
      ],
      "min": [
        -1,
        -0.9239000082015991,
        -0.9239000082015991
      ],
      "type": "VEC3"
    },
    {
      "bufferView": 29,
      "componentType": 5123,
      "count": 144,
      "max": [
        79
      ],
      "min": [
        0
      ],
      "type": "SCALAR"
    },
    {
      "bufferView": 30,
      "componentType": 5126,
      "count": 80,
      "max": [
        0.6077709794044495,
        1.0184849500656128,
        2.0143160820007324
      ],
      "min": [
        -0.6077700257301331,
        -0.19705599546432495,
        1.4527499675750732
      ],
      "type": "VEC3"
    },
    {
      "bufferView": 31,
      "componentType": 5126,
      "count": 80,
      "max": [
        0.9239000082015991,
        0.9239000082015991,
        1
      ],
      "min": [
        -0.9239000082015991,
        -0.9239000082015991,
        0
      ],
      "type": "VEC3"
    },
    {
      "bufferView": 32,
      "componentType": 5123,
      "count": 144,
      "max": [
        79
      ],
      "min": [
        0
      ],
      "type": "SCALAR"
    },
    {
      "bufferView": 33,
      "componentType": 5126,
      "count": 96,
      "max": [
        2.062674045562744,
        -1.5534629821777344,
        2.062674045562744
      ],
      "min": [
        -2.062674045562744,
        -1.7677860260009766,
        -2.062674045562744
      ],
      "type": "VEC3"
    },
    {
      "bufferView": 34,
      "componentType": 5126,
      "count": 96,
      "max": [
        0.9239000082015991,
        1,
        0.9239000082015991
      ],
      "min": [
        -0.9239000082015991,
        -1,
        -0.9239000082015991
      ],
      "type": "VEC3"
    },
    {
      "bufferView": 35,
      "componentType": 5123,
      "count": 192,
      "max": [
        95
      ],
      "min": [
        0
      ],
      "type": "SCALAR"
    },
    {
      "bufferView": 36,
      "componentType": 5126,
      "count": 112,
      "max": [
        1.9581539630889893,
        1.9964029788970947,
        1.9581539630889893
      ],
      "min": [
        -1.9581539630889893,
        -2.5335090160369873,
        -1.9581539630889893
      ],
      "type": "VEC3"
    },
    {
      "bufferView": 37,
      "componentType": 5126,
      "count": 112,
      "max": [
        0.9232000112533569,
        1,
        0.9232000112533569
      ],
      "min": [
        -0.9232000112533569,
        -1,
        -0.9232000112533569
      ],
      "type": "VEC3"
    },
    {
      "bufferView": 38,
      "componentType": 5123,
      "count": 186,
      "max": [
        111
      ],
      "min": [
        0
      ],
      "type": "SCALAR"
    },
    {
      "bufferView": 39,
      "componentType": 5126,
      "count": 36,
      "max": [
        1.9293899536132812,
        0.8242560029029846,
        1.9261300563812256
      ],
      "min": [
        -1.9293899536132812,
        -0.002824000082910061,
        -1.9261289834976196
      ],
      "type": "VEC3"
    },
    {
      "bufferView": 40,
      "componentType": 5126,
      "count": 36,
      "max": [
        1,
        0,
        1
      ],
      "min": [
        -1,
        0,
        -1
      ],
      "type": "VEC3"
    },
    {
      "bufferView": 41,
      "componentType": 5123,
      "count": 96,
      "max": [
        35
      ],
      "min": [
        0
      ],
      "type": "SCALAR"
    }
  ],
  "materials": [
    {
      "pbrMetallicRoughness": {
        "baseColorFactor": [
          0.049848,
          0.956863,
          0.318762,
          1
        ],
        "metallicFactor": 0,
        "roughnessFactor": 0.905882353
      },
      "name": "F44336.003"
    },
    {
      "pbrMetallicRoughness": {
        "baseColorFactor": [
          0.270588,
          0.352941,
          0.392157,
          1
        ],
        "metallicFactor": 0,
        "roughnessFactor": 0.905882353
      },
      "name": "455A64.003"
    },
    {
      "pbrMetallicRoughness": {
        "baseColorFactor": [
          0.470588,
          0.564706,
          0.611765,
          1
        ],
        "metallicFactor": 0,
        "roughnessFactor": 0.905882353
      },
      "name": "78909C.003"
    },
    {
      "pbrMetallicRoughness": {
        "baseColorFactor": [
          0.470588,
          0.564706,
          0.611765,
          1
        ],
        "metallicFactor": 0,
        "roughnessFactor": 0.905882353
      },
      "name": "78909C.003"
    },
    {
      "pbrMetallicRoughness": {
        "baseColorFactor": [
          0.270588,
          0.352941,
          0.392157,
          1
        ],
        "metallicFactor": 0,
        "roughnessFactor": 0.905882353
      },
      "name": "455A64.003"
    },
    {
      "pbrMetallicRoughness": {
        "baseColorFactor": [
          0.049848,
          0.956863,
          0.318762,
          1
        ],
        "metallicFactor": 0,
        "roughnessFactor": 0.905882353
      },
      "name": "F44336.003"
    },
    {
      "pbrMetallicRoughness": {
        "baseColorFactor": [
          1,
          0.944851,
          0.654598,
          1
        ],
        "metallicFactor": 0,
        "roughnessFactor": 0.905882353
      },
      "name": "FFFFFF.003"
    },
    {
      "pbrMetallicRoughness": {
        "baseColorFactor": [
          0.270588,
          0.352941,
          0.392157,
          1
        ],
        "metallicFactor": 0,
        "roughnessFactor": 0.905882353
      },
      "name": "455A64.003"
    },
    {
      "pbrMetallicRoughness": {
        "baseColorFactor": [
          1,
          0.944851,
          0.654598,
          1
        ],
        "metallicFactor": 0,
        "roughnessFactor": 0.905882353
      },
      "name": "FFFFFF.003"
    },
    {
      "pbrMetallicRoughness": {
        "baseColorFactor": [
          0.501961,
          0.870588,
          0.917647,
          1
        ],
        "metallicFactor": 0,
        "roughnessFactor": 0.905882353
      },
      "name": "80DEEA.003"
    }
  ],
  "meshes": [
    {
      "primitives": [
        {
          "mode": 4,
          "attributes": {
            "POSITION": 0,
            "NORMAL": 1
          },
          "indices": 2,
          "material": 0
        }
      ]
    },
    {
      "primitives": [
        {
          "mode": 4,
          "attributes": {
            "POSITION": 3,
            "NORMAL": 4
          },
          "indices": 5,
          "material": 1
        }
      ]
    },
    {
      "primitives": [
        {
          "mode": 4,
          "attributes": {
            "POSITION": 6,
            "NORMAL": 7
          },
          "indices": 8,
          "material": 2
        }
      ]
    },
    {
      "primitives": [
        {
          "mode": 4,
          "attributes": {
            "POSITION": 9,
            "NORMAL": 10
          },
          "indices": 11,
          "material": 3
        }
      ]
    },
    {
      "primitives": [
        {
          "mode": 4,
          "attributes": {
            "POSITION": 12,
            "NORMAL": 13
          },
          "indices": 14,
          "material": 4
        }
      ]
    },
    {
      "primitives": [
        {
          "mode": 4,
          "attributes": {
            "POSITION": 15,
            "NORMAL": 16
          },
          "indices": 17,
          "material": 5
        }
      ]
    },
    {
      "primitives": [
        {
          "mode": 4,
          "attributes": {
            "POSITION": 18,
            "NORMAL": 19
          },
          "indices": 20,
          "material": 6
        }
      ]
    },
    {
      "primitives": [
        {
          "mode": 4,
          "attributes": {
            "POSITION": 21,
            "NORMAL": 22
          },
          "indices": 23,
          "material": 7
        }
      ]
    },
    {
      "primitives": [
        {
          "mode": 4,
          "attributes": {
            "POSITION": 24,
            "NORMAL": 25
          },
          "indices": 26,
          "material": 7
        }
      ]
    },
    {
      "primitives": [
        {
          "mode": 4,
          "attributes": {
            "POSITION": 27,
            "NORMAL": 28
          },
          "indices": 29,
          "material": 7
        }
      ]
    },
    {
      "primitives": [
        {
          "mode": 4,
          "attributes": {
            "POSITION": 30,
            "NORMAL": 31
          },
          "indices": 32,
          "material": 7
        }
      ]
    },
    {
      "primitives": [
        {
          "mode": 4,
          "attributes": {
            "POSITION": 33,
            "NORMAL": 34
          },
          "indices": 35,
          "material": 7
        }
      ]
    },
    {
      "primitives": [
        {
          "mode": 4,
          "attributes": {
            "POSITION": 36,
            "NORMAL": 37
          },
          "indices": 38,
          "material": 8
        }
      ]
    },
    {
      "primitives": [
        {
          "mode": 4,
          "attributes": {
            "POSITION": 39,
            "NORMAL": 40
          },
          "indices": 41,
          "material": 9
        }
      ]
    }
  ]
}