{"accessors":[{"name":"Rocket_Ship_Circle.003_Rocket_Ship_Circle.009-Mesh_positions","componentType":5126,"count":149,"min":[28.172475814819336,0.46090900897979736,-0.2922329902648926],"max":[30.3808536529541,14.053303718566895,1.9161449670791626],"type":"VEC3","bufferView":0,"byteOffset":0},{"name":"Rocket_Ship_Circle.003_Rocket_Ship_Circle.009-Mesh_normals","componentType":5126,"count":149,"min":[-0.9239000082015991,-1,-0.9239000082015991],"max":[0.9239000082015991,0.9775999784469604,0.9239000082015991],"type":"VEC3","bufferView":0,"byteOffset":1788},{"name":"Rocket_Ship_Circle.003_Rocket_Ship_Circle.009-Mesh_0_indices","componentType":5123,"count":48,"min":[0],"max":[15],"type":"SCALAR","bufferView":1,"byteOffset":0},{"name":"Rocket_Ship_Circle.003_Rocket_Ship_Circle.009-Mesh_1_indices","componentType":5123,"count":222,"min":[16],"max":[148],"type":"SCALAR","bufferView":1,"byteOffset":96}],"asset":{"generator":"obj2gltf","version":"2.0"},"buffers":[{"name":"thruster01a","byteLength":4116,"uri":"data:application/octet-stream;base64,"}],"bufferViews":[{"name":"bufferView_0","buffer":0,"byteLength":3576,"byteOffset":0,"byteStride":12,"target":34962},{"name":"bufferView_1","buffer":0,"byteLength":540,"byteOffset":3576,"target":34963}],"materials":[{"name":"455A64.003","pbrMetallicRoughness":{"baseColorFactor":[0.270588,0.352941,0.392157,1],"metallicFactor":0,"roughnessFactor":0.905882353},"emissiveFactor":[0,0,0],"alphaMode":"OPAQUE","doubleSided":false},{"name":"78909C.003","pbrMetallicRoughness":{"baseColorFactor":[0.470588,0.564706,0.611765,1],"metallicFactor":0,"roughnessFactor":0.905882353},"emissiveFactor":[0,0,0],"alphaMode":"OPAQUE","doubleSided":false}],"meshes":[{"name":"Rocket_Ship_Circle.003_Rocket_Ship_Circle.009-Mesh","primitives":[{"attributes":{"POSITION":0,"NORMAL":1},"indices":2,"material":0,"mode":4},{"attributes":{"POSITION":0,"NORMAL":1},"indices":3,"material":1,"mode":4}]}],"nodes":[{"name":"Rocket_Ship_Circle.003_Rocket_Ship_Circle.009","mesh":0}],"scene":0,"scenes":[{"nodes":[0]}]}
