{"accessors":[{"name":"thrusterbase_Rocket_Ship_Circle.038-Mesh_positions","componentType":5126,"count":521,"min":[-3.2945470809936523,0.25349700450897217,-3.2945470809936523],"max":[3.2945470809936523,3.383481979370117,3.2945470809936523],"type":"VEC3","bufferView":0,"byteOffset":0},{"name":"thrusterbase_Rocket_Ship_Circle.038-Mesh_normals","componentType":5126,"count":521,"min":[-1,-1,-1],"max":[1,1,1],"type":"VEC3","bufferView":0,"byteOffset":6252},{"name":"thrusterbase_Rocket_Ship_Circle.038-Mesh_0_indices","componentType":5123,"count":432,"min":[0],"max":[199],"type":"SCALAR","bufferView":1,"byteOffset":0},{"name":"thrusterbase_Rocket_Ship_Circle.038-Mesh_1_indices","componentType":5123,"count":306,"min":[200],"max":[351],"type":"SCALAR","bufferView":1,"byteOffset":864},{"name":"thrusterbase_Rocket_Ship_Circle.038-Mesh_2_indices","componentType":5123,"count":168,"min":[352],"max":[440],"type":"SCALAR","bufferView":1,"byteOffset":1476},{"name":"thrusterbase_Rocket_Ship_Circle.038-Mesh_3_indices","componentType":5123,"count":144,"min":[441],"max":[520],"type":"SCALAR","bufferView":1,"byteOffset":1812}],"asset":{"generator":"obj2gltf","version":"2.0"},"buffers":[{"name":"thruster01c","byteLength":14604,"uri":"data:application/octet-stream;base64,"}],"bufferViews":[{"name":"bufferView_0","buffer":0,"byteLength":12504,"byteOffset":0,"byteStride":12,"target":34962},{"name":"bufferView_1","buffer":0,"byteLength":2100,"byteOffset":12504,"target":34963}],"materials":[{"name":"F44336.003","pbrMetallicRoughness":{"baseColorFactor":[0.049848,0.956863,0.318762,1],"metallicFactor":0,"roughnessFactor":0.905882353},"emissiveFactor":[0,0,0],"alphaMode":"OPAQUE","doubleSided":false},{"name":"455A64.003","pbrMetallicRoughness":{"baseColorFactor":[0.270588,0.352941,0.392157,1],"metallicFactor":0,"roughnessFactor":0.905882353},"emissiveFactor":[0,0,0],"alphaMode":"OPAQUE","doubleSided":false},{"name":"78909C.003","pbrMetallicRoughness":{"baseColorFactor":[0.470588,0.564706,0.611765,1],"metallicFactor":0,"roughnessFactor":0.905882353},"emissiveFactor":[0,0,0],"alphaMode":"OPAQUE","doubleSided":false},{"name":"FFFFFF.003","pbrMetallicRoughness":{"baseColorFactor":[1,0.944851,0.654598,1],"metallicFactor":0,"roughnessFactor":0.905882353},"emissiveFactor":[0,0,0],"alphaMode":"OPAQUE","doubleSided":false}],"meshes":[{"name":"thrusterbase_Rocket_Ship_Circle.038-Mesh","primitives":[{"attributes":{"POSITION":0,"NORMAL":1},"indices":2,"material":0,"mode":4},{"attributes":{"POSITION":0,"NORMAL":1},"indices":3,"material":1,"mode":4},{"attributes":{"POSITION":0,"NORMAL":1},"indices":4,"material":2,"mode":4},{"attributes":{"POSITION":0,"NORMAL":1},"indices":5,"material":3,"mode":4}]}],"nodes":[{"name":"thrusterbase_Rocket_Ship_Circle.038","mesh":0}],"scene":0,"scenes":[{"nodes":[0]}]}
