{"accessors":[{"name":"thrusterbase.003_Rocket_Ship_Circle.049-Mesh_positions","componentType":5126,"count":89,"min":[-0.8525949716567993,0.395236998796463,-0.8525949716567993],"max":[0.8525949716567993,1.1023449897766113,0.8525949716567993],"type":"VEC3","bufferView":0,"byteOffset":0},{"name":"thrusterbase.003_Rocket_Ship_Circle.049-Mesh_normals","componentType":5126,"count":89,"min":[-0.9239000082015991,-1,-0.9239000082015991],"max":[0.9239000082015991,0,0.9239000082015991],"type":"VEC3","bufferView":0,"byteOffset":6252},{"name":"thrusterbase.003_Rocket_Ship_Circle.049-Mesh_0_indices","componentType":5123,"count":168,"min":[0],"max":[88],"type":"SCALAR","bufferView":1,"byteOffset":0},{"name":"thrusterbase.002_Rocket_Ship_Circle.048-Mesh_positions","componentType":5126,"count":152,"min":[-2.062674045562744,1.102344036102295,-2.062674045562744],"max":[2.062674045562744,3.383481979370117,2.062674045562744],"type":"VEC3","bufferView":0,"byteOffset":1068},{"name":"thrusterbase.002_Rocket_Ship_Circle.048-Mesh_normals","componentType":5126,"count":152,"min":[-0.9239000082015991,-1,-0.9239000082015991],"max":[0.9239000082015991,1,0.9239000082015991],"type":"VEC3","bufferView":0,"byteOffset":7320},{"name":"thrusterbase.002_Rocket_Ship_Circle.048-Mesh_0_indices","componentType":5123,"count":306,"min":[0],"max":[151],"type":"SCALAR","bufferView":1,"byteOffset":336},{"name":"thrusterbase.001_Rocket_Ship_Circle.047-Mesh_positions","componentType":5126,"count":200,"min":[-3.2945470809936523,0.25349700450897217,-3.2945470809936523],"max":[3.2945470809936523,3.2481849193573,3.2945470809936523],"type":"VEC3","bufferView":0,"byteOffset":2892},{"name":"thrusterbase.001_Rocket_Ship_Circle.047-Mesh_normals","componentType":5126,"count":200,"min":[-1,-0.9914000034332275,-1],"max":[1,0.7847999930381775,1],"type":"VEC3","bufferView":0,"byteOffset":9144},{"name":"thrusterbase.001_Rocket_Ship_Circle.047-Mesh_0_indices","componentType":5123,"count":432,"min":[0],"max":[199],"type":"SCALAR","bufferView":1,"byteOffset":948},{"name":"thrusterbase_Rocket_Ship_Circle.038-Mesh_positions","componentType":5126,"count":80,"min":[-1.9581539630889893,1.4082280397415161,-1.9581539630889893],"max":[1.9581539630889893,3.2956929206848145,1.9581539630889893],"type":"VEC3","bufferView":0,"byteOffset":5292},{"name":"thrusterbase_Rocket_Ship_Circle.038-Mesh_normals","componentType":5126,"count":80,"min":[-0.9190999865531921,-1,-0.9190999865531921],"max":[0.9190999865531921,-0.10109999775886536,0.9190999865531921],"type":"VEC3","bufferView":0,"byteOffset":11544},{"name":"thrusterbase_Rocket_Ship_Circle.038-Mesh_0_indices","componentType":5123,"count":144,"min":[0],"max":[79],"type":"SCALAR","bufferView":1,"byteOffset":1812}],"asset":{"generator":"obj2gltf","version":"2.0"},"buffers":[{"name":"thruster01d","byteLength":14604,"uri":"data:application/octet-stream;base64,"}],"bufferViews":[{"name":"bufferView_0","buffer":0,"byteLength":12504,"byteOffset":0,"byteStride":12,"target":34962},{"name":"bufferView_1","buffer":0,"byteLength":2100,"byteOffset":12504,"target":34963}],"materials":[{"name":"78909C.003","pbrMetallicRoughness":{"baseColorFactor":[0.470588,0.564706,0.611765,1],"metallicFactor":0,"roughnessFactor":0.905882353},"emissiveFactor":[0,0,0],"alphaMode":"OPAQUE","doubleSided":false},{"name":"455A64.003","pbrMetallicRoughness":{"baseColorFactor":[0.270588,0.352941,0.392157,1],"metallicFactor":0,"roughnessFactor":0.905882353},"emissiveFactor":[0,0,0],"alphaMode":"OPAQUE","doubleSided":false},{"name":"F44336.003","pbrMetallicRoughness":{"baseColorFactor":[0.049848,0.956863,0.318762,1],"metallicFactor":0,"roughnessFactor":0.905882353},"emissiveFactor":[0,0,0],"alphaMode":"OPAQUE","doubleSided":false},{"name":"FFFFFF.003","pbrMetallicRoughness":{"baseColorFactor":[1,0.944851,0.654598,1],"metallicFactor":0,"roughnessFactor":0.905882353},"emissiveFactor":[0,0,0],"alphaMode":"OPAQUE","doubleSided":false}],"meshes":[{"name":"thrusterbase.003_Rocket_Ship_Circle.049-Mesh","primitives":[{"attributes":{"POSITION":0,"NORMAL":1},"indices":2,"material":0,"mode":4}]},{"name":"thrusterbase.002_Rocket_Ship_Circle.048-Mesh","primitives":[{"attributes":{"POSITION":3,"NORMAL":4},"indices":5,"material":1,"mode":4}]},{"name":"thrusterbase.001_Rocket_Ship_Circle.047-Mesh","primitives":[{"attributes":{"POSITION":6,"NORMAL":7},"indices":8,"material":2,"mode":4}]},{"name":"thrusterbase_Rocket_Ship_Circle.038-Mesh","primitives":[{"attributes":{"POSITION":9,"NORMAL":10},"indices":11,"material":3,"mode":4}]}],"nodes":[{"name":"thrusterbase.003_Rocket_Ship_Circle.049","mesh":0},{"name":"thrusterbase.002_Rocket_Ship_Circle.048","mesh":1},{"name":"thrusterbase.001_Rocket_Ship_Circle.047","mesh":2},{"name":"thrusterbase_Rocket_Ship_Circle.038","mesh":3}],"scene":0,"scenes":[{"nodes":[0,1,2,3]}]}
