# Blender v2.79 (sub 0) OBJ File: ''
# www.blender.org
mtllib cone03.mtl
o CUPIC_ROCKETSHIP
v 2.552675 0.857490 -1.005208
v 0.039592 5.482359 0.002656
v 2.740595 0.857490 0.000002
v 2.014335 0.857490 -1.874660
v 2.148845 0.863802 -3.897283
v 0.214685 0.857490 -2.770777
v -0.803575 0.857490 -2.676418
v -1.718989 0.857490 -2.220597
v -3.859209 0.807218 -2.673950
v -2.777345 0.857490 -0.511310
v -2.777345 0.857490 0.511314
v -2.407925 0.857490 1.464880
v -1.718989 0.857490 2.220603
v -1.256940 0.854594 4.311678
v 0.214685 0.857490 2.770783
v 1.198271 0.857490 2.490922
v 2.014335 0.857490 1.874664
v 4.740131 0.470668 1.651073
v 3.791895 0.034069 0.000002
v 3.532975 0.034069 -1.385090
v 2.791195 0.034071 -2.583118
v 1.666717 0.034071 -3.432278
v 0.311423 0.034071 -3.817898
v -1.091649 0.034071 -3.687878
v -2.353005 0.034071 -3.059798
v -3.302305 0.034071 -2.018478
v -3.811325 0.034069 -0.704540
v -3.811325 0.034069 0.704544
v -3.302305 0.034069 2.018482
v -2.353005 0.034069 3.059802
v -1.091649 0.034069 3.687882
v 0.311423 0.034069 3.817902
v 1.666717 0.034069 3.432282
v 2.791195 0.034069 2.583122
v 3.532975 0.034069 1.385094
vt 0.677950 0.540300
vt 0.634890 0.523400
vt 0.681060 0.523400
vt 0.669010 0.554910
vt 0.655470 0.565270
vt 0.639150 0.569970
vt 0.622250 0.568390
vt 0.607060 0.560720
vt 0.595630 0.548020
vt 0.589500 0.531990
vt 0.589500 0.514800
vt 0.595630 0.498780
vt 0.607060 0.486070
vt 0.622250 0.478410
vt 0.639150 0.476830
vt 0.655470 0.481530
vt 0.669010 0.491890
vt 0.677950 0.506500
vt 0.698510 0.523400
vt 0.694210 0.546680
vt 0.681900 0.566820
vt 0.663240 0.581090
vt 0.640750 0.587570
vt 0.617470 0.585390
vt 0.596540 0.574830
vt 0.580790 0.557330
vt 0.572340 0.535240
vt 0.572340 0.511560
vt 0.580790 0.489470
vt 0.596540 0.471970
vt 0.617470 0.461410
vt 0.640750 0.459220
vt 0.663240 0.465710
vt 0.681900 0.479980
vt 0.694210 0.500120
vn 0.8524 0.4979 -0.1594
vn 0.7365 0.4996 -0.4560
vn 0.9268 0.3702 0.0628
vn -0.4515 0.4463 -0.7727
vn -0.0793 0.5105 -0.8562
vn -0.3822 0.5144 -0.7677
vn 0.1844 0.3680 -0.9114
vn -0.8044 0.4464 0.3920
vn -0.8541 0.5202 0.0000
vn -0.7969 0.5193 0.3087
vn -0.6325 0.5171 0.5766
vn -0.8819 0.4291 0.1955
vn 0.6613 0.4035 0.6323
vn 0.2361 0.5056 0.8298
vn 0.5212 0.5019 0.6902
vn 0.1333 0.4202 0.8976
vn 0.6330 0.3701 -0.6799
vn 0.6126 0.7821 -0.1145
vn 0.5298 0.7821 -0.3280
vn 0.9241 0.2116 -0.3181
vn -0.2050 0.3673 -0.9072
vn -0.0575 0.7822 -0.6204
vn -0.2777 0.7822 -0.5577
vn -0.1875 0.1212 -0.9748
vn -0.9347 0.3225 0.1493
vn -0.6230 0.7823 0.0000
vn -0.5809 0.7823 0.2250
vn -0.4604 0.7822 0.4197
vn -0.8064 0.2969 0.5114
vn 0.4216 0.2886 0.8596
vn 0.1705 0.7821 0.5993
vn 0.3755 0.7821 0.4973
vn 0.3903 0.1835 0.9022
vn 0.8674 -0.0023 -0.4976
usemtl rocket_body.1
s 1
f 1/1/1 2/2/1 3/3/1
f 4/4/2 2/2/2 1/1/2
f 5/5/3 2/2/3 4/4/3
f 6/6/4 2/2/4 5/5/4
f 7/7/5 2/2/5 6/6/5
f 8/8/6 2/2/6 7/7/6
f 9/9/7 2/2/7 8/8/7
f 10/10/8 2/2/8 9/9/8
f 11/11/9 2/2/9 10/10/9
f 12/12/10 2/2/10 11/11/10
f 13/13/11 2/2/11 12/12/11
f 14/14/12 2/2/12 13/13/12
f 15/15/13 2/2/13 14/14/13
f 16/16/14 2/2/14 15/15/14
f 17/17/15 2/2/15 16/16/15
f 18/18/16 2/2/16 17/17/16
f 3/3/17 2/2/17 18/18/17
f 3/3/18 19/19/18 20/20/18 1/1/18
f 1/1/19 20/20/19 21/21/19 4/4/19
f 4/4/20 21/21/20 22/22/20 5/5/20
f 5/5/21 22/22/21 23/23/21 6/6/21
f 6/6/22 23/23/22 24/24/22 7/7/22
f 7/7/23 24/24/23 25/25/23 8/8/23
f 8/8/24 25/25/24 26/26/24 9/9/24
f 9/9/25 26/26/25 27/27/25 10/10/25
f 10/10/26 27/27/26 28/28/26 11/11/26
f 11/11/27 28/28/27 29/29/27 12/12/27
f 12/12/28 29/29/28 30/30/28 13/13/28
f 13/13/29 30/30/29 31/31/29 14/14/29
f 14/14/30 31/31/30 32/32/30 15/15/30
f 15/15/31 32/32/31 33/33/31 16/16/31
f 16/16/32 33/33/32 34/34/32 17/17/32
f 17/17/33 34/34/33 35/35/33 18/18/33
f 18/18/34 35/35/34 19/19/34 3/3/34
